<svg xmlns="http://www.w3.org/2000/svg" width="30" height="30" fill="none" viewBox="0 0 24 24"><path fill="indigo" fill-rule="evenodd" d="M3.4645 20.5355C4.9289 22 7.2859 22 12 22s7.0711 0 8.5355-1.4645S22 16.714 22 12s0-7.071-1.4645-8.5355S16.714 2 12 2 4.929 2 3.4645 3.4645 2 7.2859 2 12s0 7.0711 1.4645 8.5355M18.75 16a.75.75 0 0 1-.75.75H6a.75.75 0 0 1 0-1.5h12a.75.75 0 0 1 .75.75M18 12.75a.75.75 0 0 0 0-1.5H6a.75.75 0 0 0 0 1.5zM18.75 8a.75.75 0 0 1-.75.75H6a.75.75 0 0 1 0-1.5h12a.75.75 0 0 1 .75.75" clip-rule="evenodd"/></svg>